<svg xmlns="http://www.w3.org/2000/svg" viewBox="0 0 1200 630" role="img" aria-label="Consulting Huber - Strategy &amp; Innovation">
  <defs>
    <linearGradient id="bg" x1="0%" y1="0%" x2="100%" y2="100%">
      <stop offset="0%" stop-color="#f9f9f9"/>
      <stop offset="100%" stop-color="#eaeaea"/>
    </linearGradient>
  </defs>
  <rect width="1200" height="630" fill="url(#bg)"/>
  <g stroke="#0f0f0f" stroke-width="1.5" fill="none" stroke-linecap="round" opacity="0.75">
    <path d="M200 40 L200 260"/>
    <path d="M230 40 L230 260"/>
    <path d="M260 40 L260 260"/>
    <path d="M290 40 L290 260"/>
    <path d="M320 40 L320 260"/>
    <path d="M350 40 L350 260"/>
    <path d="M380 40 L380 260"/>
    <path d="M410 40 L410 260"/>
    <path d="M440 40 L440 260"/>
    <path d="M470 40 L470 260"/>
    <path d="M500 40 L500 260"/>
  </g>
  <g stroke="#0f0f0f" stroke-width="1.5" fill="#0f0f0f" opacity="0.9">
    <polygon points="760,260 1050,260 1050,420" />
    <polygon points="150,360 430,520 150,520" />
  </g>
  <g stroke="#0f0f0f" stroke-width="1.5" fill="none" stroke-linecap="round" opacity="0.75">
    <path d="M150 360 L300 520"/>
    <path d="M180 360 L330 520"/>
    <path d="M210 360 L360 520"/>
    <path d="M240 360 L390 520"/>
    <path d="M270 360 L420 520"/>
    <path d="M300 360 L450 520"/>
    <path d="M330 360 L480 520"/>
    <path d="M360 360 L510 520"/>
  </g>
</svg>
